<svg width="50" height="50" viewBox="0 0 50 50" fill="none" xmlns="http://www.w3.org/2000/svg">
<g clip-path="url(#clip0_7_5)">
<circle cx="24" cy="25" r="22" fill="#FFEA00"/>
<path d="M24.554 9.255C27.0193 9.54166 29.241 10.2727 31.219 11.448C33.197 12.6233 34.9313 14.2 36.422 16.178C36.766 16.608 37.0527 17.081 37.282 17.597C37.5113 18.113 37.7407 18.6147 37.97 19.102C38.6293 20.4207 38.9447 21.7967 38.916 23.23C38.8873 24.6347 38.8443 26.0107 38.787 27.358C38.7583 28.39 38.5147 29.379 38.056 30.325C37.626 31.271 37.153 32.1883 36.637 33.077C36.0063 34.1663 35.2897 35.227 34.487 36.259C33.8563 37.033 33.1397 37.6923 32.337 38.237C31.5343 38.753 30.6743 39.1687 29.757 39.484C29.0977 39.6847 28.4383 39.8997 27.779 40.129C27.1197 40.387 26.4173 40.5017 25.672 40.473L24.554 9.255ZM12.299 15.361C12.2703 15.0743 12.299 14.8593 12.385 14.716C12.4997 14.544 12.6573 14.4007 12.858 14.286C12.6573 14.0567 12.471 13.7413 12.299 13.34C12.127 12.91 12.1987 12.523 12.514 12.179C12.6 12.0357 12.8723 11.9353 13.331 11.878C13.7897 11.8207 14.234 11.7777 14.664 11.749C15.094 11.7203 15.309 11.706 15.309 11.706H17.631C18.233 11.706 18.5913 11.792 18.706 11.964C18.8493 12.1073 18.9497 12.48 19.007 13.082C19.179 15.404 19.2363 17.726 19.179 20.048C19.1503 22.3413 19.1647 24.6347 19.222 26.928V28.648C18.964 28.6767 18.706 28.734 18.448 28.82C18.2187 28.906 17.9893 28.949 17.76 28.949C17.1867 28.9777 16.6133 28.992 16.04 28.992C15.4667 28.9633 14.8933 28.949 14.32 28.949C13.9473 28.949 13.6893 28.8917 13.546 28.777C13.4027 28.6337 13.2593 28.3757 13.116 28.003C12.9153 27.315 12.815 26.627 12.815 25.939C12.8437 25.2223 12.8293 24.52 12.772 23.832C12.686 22.9147 12.6143 21.9973 12.557 21.08C12.5283 20.134 12.4853 19.188 12.428 18.242C12.3993 17.7547 12.385 17.2673 12.385 16.78C12.385 16.2927 12.3563 15.8197 12.299 15.361ZM53.321 13.34C53.6363 13.2827 53.9373 13.254 54.224 13.254C54.5107 13.254 54.783 13.254 55.041 13.254C56.0443 13.2253 57.0333 13.211 58.008 13.211C58.9827 13.211 59.9573 13.1967 60.932 13.168L61.018 7.535C61.6487 7.535 62.265 7.535 62.867 7.535C63.469 7.535 64.0853 7.54933 64.716 7.578C65.2893 7.578 65.877 7.59233 66.479 7.621C67.081 7.621 67.6973 7.621 68.328 7.621C68.3567 8.02233 68.371 8.42367 68.371 8.825C68.371 9.22633 68.371 9.599 68.371 9.943C68.371 10.4877 68.3567 11.018 68.328 11.534C68.328 12.05 68.328 12.5803 68.328 13.125C69.5033 13.125 70.7073 13.1537 71.94 13.211C73.1727 13.2397 74.4197 13.2827 75.681 13.34V21.381C74.563 21.4957 73.4307 21.6103 72.284 21.725C71.1373 21.8397 70.0193 21.9543 68.93 22.069C68.8153 22.069 68.7007 22.0833 68.586 22.112C68.5 22.112 68.3997 22.112 68.285 22.112C68.2563 23.0293 68.242 23.961 68.242 24.907C68.242 25.853 68.2277 26.7847 68.199 27.702C68.1703 29.3073 68.113 30.9413 68.027 32.604C67.9697 34.2667 67.9123 35.958 67.855 37.678L61.104 37.549C61.0467 36.0297 60.975 34.5103 60.889 32.991C60.803 31.443 60.7313 29.9523 60.674 28.519C60.6453 27.1717 60.6453 25.9963 60.674 24.993C60.7027 23.9897 60.7313 23.488 60.76 23.488V22.069H53.321V13.34ZM84.066 12.695L83.808 21.725C83.808 21.725 83.7937 21.9973 83.765 22.542C83.765 23.058 83.7507 23.7317 83.722 24.563C83.722 25.3943 83.7077 26.2543 83.679 27.143C83.679 28.0317 83.6647 28.8487 83.636 29.594C83.636 30.3107 83.636 30.8267 83.636 31.142C83.6647 32.7473 83.636 34.3527 83.55 35.958C83.4927 37.5633 83.5213 39.14 83.636 40.688L75.853 40.559V40.43C75.7957 40.4873 75.767 40.516 75.767 40.516C75.3943 40.5447 75.036 40.5877 74.692 40.645C74.4053 40.6737 74.133 40.688 73.875 40.688C73.617 40.7167 73.3447 40.7167 73.058 40.688C72.542 40.6307 72.284 40.344 72.284 39.828C72.2553 38.452 72.2267 37.076 72.198 35.7C72.1693 34.324 72.1263 32.9337 72.069 31.529C72.1837 31.5003 72.284 31.4573 72.37 31.4C72.4847 31.3427 72.585 31.2997 72.671 31.271L72.628 31.314H75.896L75.939 12.738C76.111 12.6807 76.5267 12.6663 77.186 12.695C77.874 12.695 78.648 12.7093 79.508 12.738C80.3967 12.738 81.2567 12.738 82.088 12.738C82.9193 12.738 83.5787 12.7237 84.066 12.695ZM101.61 39.226C101.151 39.226 100.865 39.1687 100.75 39.054C100.635 38.9107 100.578 38.5953 100.578 38.108C100.578 37.1047 100.592 36.1013 100.621 35.098C100.65 34.066 100.635 33.0627 100.578 32.088V11.276C100.578 10.76 100.564 10.244 100.535 9.728C100.535 9.212 100.678 8.653 100.965 8.051C101.538 8.051 102.112 8.06533 102.685 8.094C103.287 8.12266 103.875 8.137 104.448 8.137C104.935 8.137 105.408 8.137 105.867 8.137C106.326 8.10833 106.799 8.07966 107.286 8.051C107.745 8.051 108.031 8.10833 108.146 8.223C108.289 8.309 108.361 8.58133 108.361 9.04C108.361 9.32667 108.332 9.62766 108.275 9.943C108.246 10.2297 108.218 10.5307 108.189 10.846C108.189 10.9893 108.175 11.1613 108.146 11.362C108.146 11.534 108.16 11.6917 108.189 11.835C108.418 13.4117 108.49 14.974 108.404 16.522C108.347 18.0413 108.332 19.5893 108.361 21.166C108.361 21.4813 108.361 21.811 108.361 22.155C108.361 22.4703 108.375 22.7857 108.404 23.101L124.443 22.585C124.443 22.9003 124.429 23.23 124.4 23.574C124.4 23.8893 124.386 24.2047 124.357 24.52C124.099 27.1573 123.411 29.594 122.293 31.83C121.204 34.0373 119.426 35.872 116.961 37.334C116.732 37.4487 116.502 37.592 116.273 37.764C116.044 37.9073 115.814 38.0507 115.585 38.194C115.47 38.2513 115.341 38.323 115.198 38.409C115.083 38.4663 114.954 38.5237 114.811 38.581C114.352 38.6957 113.879 38.8103 113.392 38.925C112.905 39.011 112.417 39.097 111.93 39.183C111.414 39.2977 110.898 39.398 110.382 39.484C109.866 39.5413 109.336 39.5557 108.791 39.527C108.648 39.527 108.504 39.484 108.361 39.398C108.218 39.312 108.103 39.226 108.017 39.14C107.988 39.3407 107.917 39.4697 107.802 39.527C107.687 39.5557 107.472 39.5557 107.157 39.527C106.727 39.4697 106.283 39.4267 105.824 39.398C105.394 39.3693 104.978 39.3407 104.577 39.312C104.09 39.2833 103.588 39.269 103.072 39.269C102.585 39.269 102.097 39.2547 101.61 39.226ZM137.214 25.208C137.357 24.0327 137.701 22.9433 138.246 21.94C138.819 20.908 139.536 19.962 140.396 19.102C141.055 18.4427 141.743 17.855 142.46 17.339C143.177 16.7943 143.936 16.307 144.739 15.877C144.653 15.5617 144.567 15.2463 144.481 14.931C144.395 14.6157 144.323 14.3003 144.266 13.985C144.094 13.2397 143.922 12.4943 143.75 11.749C143.578 11.0037 143.392 10.2153 143.191 9.384C144.108 9.126 144.997 8.85367 145.857 8.567C146.746 8.25167 147.649 8.12267 148.566 8.18C149.025 8.18 149.354 8.25167 149.555 8.395C149.756 8.53833 149.899 8.81067 149.985 9.212C150.157 9.986 150.315 10.76 150.458 11.534C150.63 12.308 150.802 13.082 150.974 13.856C151.433 13.856 151.877 13.8703 152.307 13.899C152.766 13.9277 153.21 13.9993 153.64 14.114C154.557 14.286 155.489 14.5297 156.435 14.845C157.381 15.1603 158.227 15.6477 158.972 16.307C159.115 15.6763 159.201 15.06 159.23 14.458C159.287 13.856 159.359 13.2397 159.445 12.609C159.502 11.9783 159.574 11.3477 159.66 10.717C159.746 10.0577 159.832 9.36966 159.918 8.653C160.749 8.71033 161.552 8.75333 162.326 8.782C163.1 8.782 163.845 8.93967 164.562 9.255C164.906 9.36967 165.135 9.513 165.25 9.685C165.365 9.857 165.393 10.115 165.336 10.459C165.107 12.2077 164.863 13.9563 164.605 15.705C164.347 17.425 164.089 19.1737 163.831 20.951C163.802 21.037 163.788 21.123 163.788 21.209C163.788 21.2663 163.774 21.3237 163.745 21.381C163.802 21.5817 163.788 21.768 163.702 21.94C163.645 22.112 163.473 22.2123 163.186 22.241C162.469 22.2697 161.882 22.5133 161.423 22.972C160.993 23.402 160.506 23.7603 159.961 24.047C158.814 24.5917 157.711 25.2367 156.65 25.982C155.618 26.6987 154.543 27.3867 153.425 28.046C153.396 28.0747 153.368 28.089 153.339 28.089C153.31 28.089 153.282 28.1033 153.253 28.132C153.339 28.5047 153.425 28.863 153.511 29.207C153.626 29.551 153.74 29.895 153.855 30.239C153.941 30.5257 153.998 30.8267 154.027 31.142C154.084 31.4573 154.013 31.744 153.812 32.002C153.583 32.088 153.368 32.174 153.167 32.26C152.995 32.346 152.823 32.4177 152.651 32.475C152.364 32.5897 152.063 32.7043 151.748 32.819C151.461 32.905 151.16 32.9767 150.845 33.034C150.243 33.1487 149.856 32.8907 149.684 32.26C149.598 31.9733 149.512 31.6867 149.426 31.4C149.34 31.0847 149.24 30.7837 149.125 30.497C147.548 31.3857 145.957 32.2743 144.352 33.163C142.775 34.0517 141.17 34.969 139.536 35.915C139.307 35.3703 139.106 34.8687 138.934 34.41C138.762 33.9513 138.561 33.5213 138.332 33.12C137.587 31.8587 137.171 30.5687 137.085 29.25C136.999 27.9027 137.042 26.5553 137.214 25.208ZM172.087 26.498V27.874C172.144 30.3967 171.571 32.5897 170.367 34.453C169.192 36.2877 167.672 37.9217 165.809 39.355C165.58 39.4983 165.336 39.656 165.078 39.828C164.849 39.9713 164.619 40.1147 164.39 40.258L157.123 27.745C158.728 26.7703 160.319 25.81 161.896 24.864C163.473 23.8893 165.049 22.9147 166.626 21.94C166.769 21.8827 166.927 21.8253 167.099 21.768C167.3 21.7107 167.472 21.639 167.615 21.553C167.844 21.4097 168.074 21.252 168.303 21.08C168.561 20.908 168.876 20.6787 169.249 20.392C169.306 20.4207 169.421 20.478 169.593 20.564C169.765 20.6213 169.908 20.7217 170.023 20.865C170.252 21.2377 170.467 21.639 170.668 22.069C170.869 22.4703 171.041 22.886 171.184 23.316C171.356 23.7173 171.499 24.1187 171.614 24.52C171.757 24.9213 171.901 25.3227 172.044 25.724C172.13 25.9533 172.144 26.2113 172.087 26.498ZM184.127 12.093C184.098 11.8063 184.141 11.5913 184.256 11.448C184.371 11.276 184.528 11.1327 184.729 11.018C184.528 10.76 184.328 10.4303 184.127 10.029C183.955 9.599 184.027 9.19767 184.342 8.825C184.457 8.71033 184.743 8.62433 185.202 8.567C185.661 8.481 186.105 8.42367 186.535 8.395C186.994 8.36633 187.223 8.352 187.223 8.352H189.588C190.219 8.352 190.591 8.438 190.706 8.61C190.849 8.75333 190.95 9.14033 191.007 9.771C191.208 12.1217 191.279 14.4867 191.222 16.866C191.165 19.2167 191.165 21.5817 191.222 23.961V25.681C190.935 25.7097 190.663 25.767 190.405 25.853C190.176 25.939 189.946 25.982 189.717 25.982C189.115 26.0107 188.527 26.025 187.954 26.025C187.381 25.9963 186.807 25.982 186.234 25.982C185.833 25.982 185.56 25.9247 185.417 25.81C185.274 25.6667 185.13 25.4087 184.987 25.036C184.786 24.3193 184.686 23.6027 184.686 22.886C184.686 22.1693 184.657 21.467 184.6 20.779C184.514 19.833 184.457 18.887 184.428 17.941C184.399 16.9663 184.356 15.9917 184.299 15.017C184.27 14.5297 184.242 14.0423 184.213 13.555C184.213 13.039 184.184 12.5517 184.127 12.093ZM189.803 36.861C189.488 36.4597 189.172 36.044 188.857 35.614C188.542 35.1553 188.255 34.6967 187.997 34.238C186.764 31.9447 186.234 29.551 186.406 27.057C186.435 26.7703 186.492 26.584 186.578 26.498C186.693 26.412 186.893 26.3547 187.18 26.326C187.581 26.326 187.983 26.326 188.384 26.326C188.814 26.2973 189.23 26.283 189.631 26.283C190.892 26.2257 192.154 26.1827 193.415 26.154C194.705 26.0967 195.995 26.0823 197.285 26.111C198.202 26.1397 199.12 26.0823 200.037 25.939C200.983 25.7957 201.929 25.7527 202.875 25.81C203.248 25.8387 203.62 25.8673 203.993 25.896C204.366 25.896 204.738 25.7957 205.111 25.595H205.928C205.928 24.391 205.928 23.2013 205.928 22.026C205.928 20.822 205.914 19.618 205.885 18.414C205.885 18.242 206.114 18.1847 206.573 18.242C207.06 18.2707 207.605 18.371 208.207 18.543C208.809 18.6863 209.311 18.8297 209.712 18.973C210.113 19.0877 210.242 19.1307 210.099 19.102C210.128 19.274 210.128 19.4603 210.099 19.661C210.07 19.833 210.07 20.005 210.099 20.177C210.07 21.1517 210.056 22.1263 210.056 23.101C210.056 24.047 210.056 25.0073 210.056 25.982C210.171 26.4407 210.185 26.9423 210.099 27.487C210.013 27.831 209.97 28.1893 209.97 28.562C209.97 28.906 209.956 29.2643 209.927 29.637C209.87 30.411 209.683 31.1277 209.368 31.787C209.139 32.3603 208.895 32.9337 208.637 33.507C208.408 34.0803 208.135 34.6393 207.82 35.184C207.189 36.1873 206.444 37.0473 205.584 37.764C204.753 38.4807 203.807 39.0827 202.746 39.57C201.341 40.2007 199.808 40.602 198.145 40.774C197.514 40.8313 196.869 40.8027 196.21 40.688C195.579 40.5733 194.949 40.387 194.318 40.129C193.458 39.7563 192.641 39.2977 191.867 38.753C191.122 38.2083 190.434 37.5777 189.803 36.861Z" fill="black"/>
</g>
<defs>
<clipPath id="clip0_7_5">
<rect width="50" height="50" fill="white"/>
</clipPath>
</defs>
</svg>
